<?xml version="1.0" encoding="UTF-8"?>
<!-- Generator: Adobe Illustrator 13.0.0, SVG Export Plug-In . SVG Version: 6.00 Build 14948)  -->
<!DOCTYPE svg PUBLIC "-//W3C//DTD SVG 1.1//EN" "http://www.w3.org/Graphics/SVG/1.1/DTD/svg11.dtd">
<svg version="1.1" id="Layer_1" xmlns="http://www.w3.org/2000/svg" xmlns:xlink="http://www.w3.org/1999/xlink" x="0px" y="0px" width="500px" height="355.691px" viewBox="0 0 500 355.691" enable-background="new 0 0 500 355.691" xml:space="preserve">
<g>
	<path fill-rule="evenodd" clip-rule="evenodd" fill="#F0712A" d="M487.378,222.215c-1.973-2.328-4.017-4.734-6.153-7.49   c-10.064-12.977-11.513-14.407-22.146-21.851c-6.736-4.719-12.847-8.198-16.448-10.135c1.665-3.176,5.066-9.667,5.066-9.667   l-23.174-28.966c0,0-4.024,0-5.689,0c-6.301-7.658-37.857-46.034-43.344-53.121c-8.516-10.996-17.877-16.341-28.62-16.341   c0,0-17.361,0-20.354,0c-2.521-2.533-6.51-2.573-15.406-2.573c-7.07,0-12.304-1.112-14.9-1.805   c-0.003-0.005-0.006-0.009-0.008-0.014c5.078-4.775,10.024-12.941,11.053-18.849c0.178-1.014,0.264-2.08,0.264-3.197   c0-6.494-2.946-14.629-8.503-23.327c-5.564-8.708-15.662-13.042-18.927-14.262c-6.711-8.562-19.444-11.734-28.475-10.276   c-7.328,1.181-15.345,5.065-25.232,12.225c-6.779,4.909-8.713,12.026-9.261,15.221c-2.294,1.977-7.977,7.13-16.025,16.184   c-8.677,9.76-14.494,19.416-16.825,27.921l-0.069,0.25c0,0-0.179,1.412-0.318,2.503c-4.903,0-21.989,0-21.989,0   c-13.415,0-21.571,3.847-30.094,14.195c-3.732,4.532-15.82,19.475-26.144,32.255c-2.539-2.288-4.865-5.148-6.832-7.566   l-1.259-1.542c-3.662-4.418-10.748-13.308-13.256-16.693c-2.706-3.654-5.277-5.213-8.6-5.213l-0.61-0.005   c-1.346-0.018-3.38-0.047-9.437,0.403l-3.86,0.258c-4.507,0.283-6.769,0.426-9.113,1.745c-1.464,0.823-2.404,2.187-2.645,3.838   c-0.042,0.278-0.062,0.561-0.062,0.851c0,3.201,2.528,7.146,8.428,13.261c7.244,7.506,17.4,16.479,24.254,22.04   c2.934,2.38,5.921,4.118,9.358,5.512c-2.253,2.792-3.915,4.851-4.943,6.124c-2.672,0-15.8,0-15.8,0s0,13.432,0,15.359   C69.959,161.33,0,260.137,0,260.137l20.506,30.469c0,0,97.423,0,100.962,0c15.256,21.197,33.026,36.773,54.313,47.495   c23.51,11.839,50.778,17.591,83.359,17.591c64.718,0,117.234-41.649,128.697-65.086c4.45,0,71.199,0,71.199,0   c20.846,0,24.57-5.157,29.848-15.049l1.644-3.027l3.022-5.241c4.021-6.864,6.449-11.009,6.449-18.677   C500,237.086,494.431,230.52,487.378,222.215L487.378,222.215z"/>
	<path fill-rule="evenodd" clip-rule="evenodd" fill="#34326C" d="M22.455,286.946L4.446,260.189l70.493-99.561v-12.863H88.83   c0,0,38.591-47.852,45.794-56.599c7.204-8.747,14.15-12.864,27.27-12.864c13.122,0,173.655,0,184.976,0   c11.319,0,19.552,6.948,25.726,14.922c6.176,7.976,44.511,54.541,44.511,54.541h5.658l20.582,25.728l-5.661,10.802   c0,0,9.007,4.372,19.298,11.575c10.288,7.209,11.575,8.492,21.349,21.099c9.779,12.611,18.012,18.525,18.012,31.643   c0,8.231-3.088,11.578-9.007,22.127c-5.914,10.55-6.431,16.208-28.3,16.208c-21.866,0-73.576,0-73.576,0   c-8.232,21.099-60.715,65.086-126.32,65.086c-65.601,0-107.022-24.178-135.836-65.086H22.455L22.455,286.946z"/>
	<path fill-rule="evenodd" clip-rule="evenodd" fill="#FFFFFF" d="M84.456,158.313l1.03-1.799h29.07L53.07,258.133H18.08   c0,0-0.255-2.318,1.801-3.347c2.058-1.028,3.858-1.801,6.432-5.658c2.572-3.862,55.57-78.978,57.885-82.581   C86.515,162.946,87.029,159.342,84.456,158.313L84.456,158.313z"/>
	<path fill-rule="evenodd" clip-rule="evenodd" fill="#FFFFFF" d="M61.302,258.133l14.149-24.956h1.801c0,0-1.028,4.63,4.631,4.63   s16.465,0,16.465,0s1.03-2.829,0.258-5.142c-0.772-2.317-4.631-17.497-5.661-21.099c-1.03-3.602-1.286-5.142,0.772-9.266   c2.058-4.113,6.174-11.577,8.233-14.662c2.058-3.083,5.401-3.083,9.519-3.083s26.755,0,26.755,0s-8.233,17.233-9.261,19.296   c-1.029,2.057-2.316,0.767-2.572-0.772c-0.259-1.546-1.801-3.091-3.859-3.091c-2.059,0-11.063,0-11.063,0s-0.514,2.063,0.257,4.886   c0.771,2.835,4.116,15.44,5.146,19.814c1.028,4.375,1.287,6.176-0.258,9.772c-1.544,3.606-7.203,16.213-8.746,19.559   c-1.544,3.341-4.375,4.113-8.49,4.113S61.302,258.133,61.302,258.133L61.302,258.133z"/>
	<path fill-rule="evenodd" clip-rule="evenodd" fill="#FFFFFF" d="M114.301,258.133c0,0,24.687-59.689,26.497-64.319   c2.316-5.914-0.256-6.947-0.256-6.947l0.77-2.311c0,0,13.636,0,16.208,0c2.574,0,3.86,1.799,2.574,4.884   c-1.287,3.09-16.979,48.111-16.979,48.111h17.493l-6.432,20.582H114.301L114.301,258.133z"/>
	<path fill-rule="evenodd" clip-rule="evenodd" fill="#FFFFFF" d="M214.12,254.531c-1.03-1.028-1.287-2.574-1.801-6.692   c0,0-6.945-50.68-7.461-55.826c-0.515-5.146-1.543-7.457-5.917-7.457c-4.374,0-17.237,0-17.237,0l-0.516,2.055   c0,0,2.316,1.545,0.773,5.663c-1.544,4.113-28.3,65.859-28.3,65.859h22.64l0.257-2.829c-1.802-0.772-2.316-1.801-1.802-4.119   c0.516-2.313,4.89-11.316,4.89-11.316h14.15c0,0,0.771,6.687,0.771,10.288s0,4.375-1.802,5.403v2.573h22.898v-2.057   C215.664,256.076,215.149,255.56,214.12,254.531L214.12,254.531z M184.792,223.916l6.945-19.809l1.028,19.809H184.792   L184.792,223.916z"/>
	<path fill-rule="evenodd" clip-rule="evenodd" fill="#FFFFFF" d="M237.018,255.814v2.318h-25.727v-2.573   c0,0,2.315-0.256,2.829-4.886c0.514-4.636,5.66-53.771,5.917-58.145c0.258-4.374-1.801-5.146-1.801-5.146v-2.827h19.296   l12.349,31.124c0,0-0.772-21.35-1.03-24.439c-0.257-3.085-4.116-4.886-4.116-4.886l-0.257-1.799h20.066l7.203,73.577   c0,0-5.146,0-10.035,0c-4.885,0-8.416-3.236-10.803-7.459c-3.345-5.92-15.437-30.104-15.437-30.104s-1.286,25.729-1.544,29.842   C233.672,254.531,237.018,255.814,237.018,255.814L237.018,255.814z"/>
	<path fill-rule="evenodd" clip-rule="evenodd" fill="#FFFFFF" d="M320.627,245.015c-1.801-7.72-10.544-41.425-12.092-47.595   c-1.542-6.18-5.399-12.864-13.375-12.864c-7.977,0-28.3,0-28.3,0l0.255,2.055c0,0,3.603,1.289,4.117,4.891   c0.516,3.602,6.433,55.054,6.947,59.173c0.514,4.112-2.83,4.886-2.83,4.886l0.256,2.573c0,0,11.137,0,21.097,0   c5.7,0,11.014,0,13.637,0C317.539,258.133,322.431,252.73,320.627,245.015L320.627,245.015z M295.674,240.38l-7.203-40.903   c4.374,0,6.175,1.028,7.203,5.397c1.028,4.374,4.889,23.417,5.916,28.303C302.619,238.067,301.079,239.607,295.674,240.38   L295.674,240.38z"/>
	<path fill-rule="evenodd" clip-rule="evenodd" fill="#FFFFFF" d="M326.288,258.133l-0.77-3.091c0,0,4.372-0.772,3.085-5.146   c-1.284-4.369-14.663-54.537-15.691-58.655c-1.031-4.113-4.891-4.113-4.891-4.113l-0.772-2.571h36.017l6.951,16.722h-2.061   c0,0-1.03-1.801-4.373-1.801c-3.344,0-10.806,0-10.806,0l2.831,8.744c0,0,5.4,0,7.457,0c2.063,0,1.804-2.313,1.804-2.313h2.057   l7.206,19.548h-1.801c0,0-1.284-1.796-3.857-1.796c-2.574,0-8.234,0-8.234,0l4.374,13.635c0,0,8.231,0,11.577,0   c3.344,0,4.116-3.857,4.116-3.857l2.054-0.261l9.779,24.956H326.288L326.288,258.133z"/>
	<path fill-rule="evenodd" clip-rule="evenodd" fill="#FFFFFF" d="M398.066,238.318c3.86,6.696,10.035,19.814,10.035,19.814h23.667   l-1.287-2.573c0,0-3.087,0-5.658-4.375c-2.573-4.374-10.808-19.554-15.179-26.496c-4.372-6.947-9.264-6.175-9.264-6.175   s3.605-3.857,1.546-7.976c-2.062-4.113-7.206-12.862-9.779-17.241c-2.573-4.369-4.884-8.741-14.663-8.741   c-9.776,0-30.873,0-30.873,0l0.775,2.311c0,0,2.574-0.771,4.113,2.834c1.545,3.597,22.383,51.969,24.697,57.627   c2.318,5.658-1.542,8.232-1.542,8.232l1.031,2.573h24.954l-11.837-26.502C388.804,231.631,394.207,231.631,398.066,238.318   L398.066,238.318z M373.369,198.704c0,0,4.374-1.028,6.178,2.573c1.798,3.597,3.857,7.971,5.144,11.062   c1.287,3.09-2.317,6.175-2.317,6.175L373.369,198.704L373.369,198.704z"/>
	<path fill-rule="evenodd" clip-rule="evenodd" fill="#FFFFFF" d="M436.401,258.133l-17.239-27.785h3.088   c0,0,3.088,3.602,10.035,3.602c6.945,0,21.352,0,21.352,0s-5.402-7.977-9.262-10.289c-3.857-2.317-30.359-19.553-36.529-23.416   c-6.178-3.857-8.748-5.914-12.608-11.577c-3.86-5.659-12.864-19.804-14.921-23.921s-1.801-9.261,3.857-9.261   c5.664,0,31.646,0,31.646,0l14.662,19.037h-3.34c0,0-1.804-2.315-5.92-2.315c-4.115,0-14.663,0-14.663,0s1.799,3.6,3.344,6.173   c1.54,2.571,5.661,5.659,11.575,8.486c5.917,2.834,27.269,15.951,33.188,19.809c5.919,3.863,7.717,7.465,12.605,13.64   c4.891,6.176,5.917,8.231,13.123,17.753c7.203,9.521,5.402,20.065-6.689,20.065C461.61,258.133,436.401,258.133,436.401,258.133   L436.401,258.133z"/>
	<path fill-rule="evenodd" clip-rule="evenodd" fill="#F0712A" d="M363.234,107.127c-5.483-7.676-10.293-14.326-22.043-14.863   c-0.828-4.631-2.645-6.625-5.184-8.861l-0.963-0.864c-2.968-2.738-7.282-5.195-8.726-5.984c-1.985-2.953-4.974-3.111-15.21-3.111   c-7.856,0-13.585-1.357-15.979-2.043c-0.148-0.547-0.344-1.046-0.582-1.473c5.066-4.419,10.338-12.922,11.355-18.759   c0.157-0.908,0.232-1.873,0.232-2.886c0-6.213-2.918-14.272-8.278-22.664c-5.56-8.702-15.897-12.874-18.591-13.843   c-6.309-8.393-18.688-11.492-27.436-10.081c-7.108,1.146-14.94,4.954-24.646,11.982c-6.812,4.933-8.417,12.196-8.792,14.826   c-1.912,1.621-7.732,6.769-16.275,16.38c-8.254,9.286-15.339,21.068-16.479,27.408c-0.838,4.652-1.124,9.31-1.124,12.428   c0,0.508,0.007,0.975,0.021,1.394c0.051,1.507,0.557,3.26,1.018,4.577c-0.684,0.406-1.533,0.921-2.47,1.507h-16.302   c-14.386,0-17.934,5.072-25.709,16.188c0.005-0.008-8.058,10.72-15.77,20.98c-4.807-0.654-7.017-1.267-11.02-2.396l-2.982-0.83   c-5.152-1.416-9.99-7.37-13.521-11.718l-1.273-1.558c-3.672-4.432-10.782-13.351-13.302-16.753   c-3.03-4.092-5.395-4.656-7.497-4.656l-0.629-0.005c-1.322-0.02-3.32-0.047-9.316,0.398l-3.876,0.26   c-4.298,0.27-6.456,0.406-8.525,1.571c-1.087,0.61-1.782,1.621-1.961,2.841c-0.031,0.221-0.052,0.456-0.052,0.707   c0,2.041,1.312,5.271,8.049,12.252c7.204,7.467,17.311,16.395,24.13,21.929c7.26,5.888,14.098,7.519,26.928,9.614   c0.19,0.03,2.466,0.346,5.512,0.765c-2.701,3.595-4.496,5.982-4.496,5.982s11.024,0,13.631,0c0,3.221,0,29.586,0,29.586h245.176   v-22.124c0-3.443,1.615-7.462,6.176-7.462h18.261L363.234,107.127L363.234,107.127z"/>
	<path fill-rule="evenodd" clip-rule="evenodd" fill="#34326C" d="M358.447,161.66c0,0-0.258-1.545-0.258-6.175s0-5.661-1.543-8.49   c-1.542-2.83-2.314-3.344-2.314-6.431c0-3.089,1.028-5.661-1.287-8.234c-2.314-2.572-1.798-4.373-1.798-11.319   c0-6.945-5.663-11.063-9.005-14.407c-3.348-3.343-2.834-4.888-2.834-7.462c0-10.804-2.573-11.833-5.916-14.921   c-3.344-3.087-8.746-5.918-8.746-5.918c-1.287-2.315-2.574-2.572-13.637-2.572c-11.062,0-18.009-2.573-18.009-2.573   c0-2.315-1.802-3.6-1.802-3.6c5.147-3.345,11.32-12.865,12.354-18.783c1.023-5.915-1.804-14.663-7.721-23.925   c-5.919-9.26-18.008-13.12-18.008-13.12c-5.661-8.231-17.753-11.062-25.729-9.777c-7.975,1.287-16.207,6.174-23.667,11.578   c-7.462,5.404-7.976,14.149-7.976,14.149s-6.432,5.145-16.723,16.722c-8.276,9.311-14.925,20.667-15.938,26.294   c-1.03,5.717-1.145,11.053-1.067,13.341c0.076,2.286,1.568,5.646,1.568,5.646s-13.636,7.718-16.978,12.863   c-3.346,5.146-9.264,15.178-9.264,15.178c-5.658-0.771-8.489,1.03-8.489,1.03s-3.087-2.058-7.719-1.801   c-4.631,0.258-8.231,4.63-8.231,4.63s-2.315,0.258-3.602,0.774c-4.232,1.69-5.66,5.401-5.66,5.401l-0.301,2.287   c-0.566-0.077-1.146-0.152-1.756-0.229c-7.205-0.9-9.134-1.671-15.695-3.473c-6.56-1.802-12.221-9.52-15.951-14.021   c-3.729-4.502-10.804-13.377-13.377-16.85c-2.572-3.476-4.246-3.732-5.66-3.732c-1.415,0-2.83-0.128-9.776,0.388   c-6.947,0.513-9.391,0.385-11.449,1.542c-2.058,1.159-0.516,4.888,6.56,12.221c7.074,7.332,17.109,16.208,23.927,21.74   c6.817,5.53,13.248,7.074,25.855,9.132c0.548,0.09,22,3.03,22.764,3.116c0,0,0.004,6.659,1.291,8.719   c1.287,2.059,3.602,3.086,3.602,3.086s-1.544,2.574-2.831,6.177c-1.285,3.6-2.828,10.291-3.345,13.12   c-0.514,2.828,0.773,4.373,0.773,4.373l0.184,0.243l237.727,0.106v-13.607L358.447,161.66L358.447,161.66z"/>
	<polygon fill-rule="evenodd" clip-rule="evenodd" fill="#F0712A" points="28.371,275.368 19.625,262.507 51.784,262.507    57.958,275.368 28.371,275.368  "/>
	<path fill-rule="evenodd" clip-rule="evenodd" fill="#F0712A" d="M63.618,275.368l-6.175-12.861c0,0,39.363,0,44.508,0   c3.345,0,5.917-2.573,5.917-2.573s1.035,5.188,1.542,8.231c0.515,3.09-3.601,7.203-9.26,7.203   C94.49,275.368,63.618,275.368,63.618,275.368L63.618,275.368z"/>
	<polygon fill-rule="evenodd" clip-rule="evenodd" fill="#F0712A" points="117.388,275.368 112.757,262.507 176.559,262.507    177.587,275.368 117.388,275.368  "/>
	<polygon fill-rule="evenodd" clip-rule="evenodd" fill="#F0712A" points="193.024,262.507 193.024,275.368 238.304,275.368    239.075,262.507 193.024,262.507  "/>
	<path fill-rule="evenodd" clip-rule="evenodd" fill="#F0712A" d="M248.079,259.678c0,0,2.572,2.829,6.948,2.829   c4.371,0,16.977,0,16.977,0l-0.771,12.861c0,0-5.145,0-11.576,0c-6.434,0-10.033-5.914-11.319-9.004   C247.051,263.279,248.079,259.678,248.079,259.678L248.079,259.678z"/>
	<path fill-rule="evenodd" clip-rule="evenodd" fill="#F0712A" d="M275.092,275.368l1.031-12.861c0,0,30.87,0,36.789,0   c5.914,0,8.488-2.573,8.488-2.573s0,5.146-1.543,9.521c-1.545,4.375-3.088,5.914-7.718,5.914S275.092,275.368,275.092,275.368   L275.092,275.368z"/>
	<polygon fill-rule="evenodd" clip-rule="evenodd" fill="#F0712A" points="322.945,275.368 325.519,262.507 372.596,262.507    368.223,275.368 322.945,275.368  "/>
	<polygon fill-rule="evenodd" clip-rule="evenodd" fill="#F0712A" points="371.826,275.368 376.197,262.507 401.412,262.507    395.752,275.368 371.826,275.368  "/>
	<polygon fill-rule="evenodd" clip-rule="evenodd" fill="#F0712A" points="401.151,275.368 406.559,262.507 430.737,262.507    423.793,275.368 401.151,275.368  "/>
	<path fill-rule="evenodd" clip-rule="evenodd" fill="#F0712A" d="M429.968,275.368l6.689-12.861c0,0,31.646,0,37.048,0   s8.487-2.829,8.487-2.829s-2.057,4.113-4.886,8.743c-2.832,4.63-3.602,6.947-13.123,6.947   C454.666,275.368,429.968,275.368,429.968,275.368L429.968,275.368z"/>
	<path fill-rule="evenodd" clip-rule="evenodd" fill="#F0712A" d="M321.66,308.045c0,0-10.807,8.743-34.99,8.743   s-46.823-8.231-58.656-12.861c-11.836-4.631-28.816-10.806-41.68-10.806c-12.863,0-21.096,3.602-23.668,6.175   c-2.573,2.568-5.661,2.057-3.087-3.09c2.572-5.146,9.263-13.89,30.872-13.89c21.611,0,38.592,10.293,49.91,14.923   c11.323,4.625,40.648,13.891,59.171,13.891C310.339,311.13,321.66,308.045,321.66,308.045L321.66,308.045z"/>
	<path fill-rule="evenodd" clip-rule="evenodd" fill="#F0712A" d="M247.309,61.837c0,0-0.772-2.058-2.059-3.086   c0,0,3.217-2.06,5.273-1.93c0,0-1.415-1.801-7.59-1.416c0,0-1.929-3.345-2.701-4.887c-0.771-1.543-0.642-2.572,1.415-4.502   c2.059-1.929,4.76-4.888,10.678-5.789c0,0,2.702,1.673,9.646,1.93c6.945,0.257,12.606-0.643,12.606-0.643s1.158,1.028,1.027,3.472   c0,0-2.957-1.671-5.402-0.127c-2.442,1.542-2.314,3.215-3.988,3.087c-1.67-0.129-2.314-1.287-2.314-1.287s-0.128,2.058-2.57,1.671   c-2.443-0.385-4.375-3.217-6.948-4.502c-2.573-1.287-6.817-2.443-9.389,3.731c0,0,2.7-2.188,5.403-1.672   c2.7,0.513,3.345,2.701,3.345,2.701s-1.545-0.643-3.474-0.129c-1.929,0.514-2.831,1.799-2.831,1.799s-0.771-0.128-2.315-0.513   c0,0,0,1.156,3.988,1.156c3.987,0,7.512,0.115,10.032,3.475c0.771,1.027,1.286,1.285,1.416,0.128c0.129-1.159,0-2.316-0.514-3.217   c0,0,2.829-0.771,3.6-2.057c0,0,2.059,1.027,2.831,3.859c0.772,2.829-0.259,3.215,0.128,4.244c0.387,1.03,1.028,2.958,1.028,2.958   l-3.857,1.802c0,0-0.9-1.287-2.442-1.545c-1.545-0.257-3.346,0.258-3.346-1.285c0-1.801,0-2.06,0-2.06s-0.256,0.902-2.83,1.159   C252.581,58.622,248.208,60.809,247.309,61.837L247.309,61.837z"/>
	<path fill-rule="evenodd" clip-rule="evenodd" fill="#F0712A" d="M271.877,48.847c0,0,1.672-2.446,3.473-2.446   s2.574,2.96,1.156,6.691c0,0,0.9,1.542,1.159,2.572c0.259,1.028,0.387,1.028-0.645,2.315c-1.028,1.287-1.801,2.059-3.602,2.188   c-1.801,0.127-4.786,0.168-4.116-0.772c0.645-0.902,0.9-1.157,0.129-1.416c-0.771-0.257-1.543-1.028-0.901-2.058   c0.646-1.028,2.96-3.988,6.689-3.345c0,0,0.903-2.444-0.128-3.602C274.063,47.817,271.877,48.847,271.877,48.847L271.877,48.847z"/>
	<path fill-rule="evenodd" clip-rule="evenodd" fill="#F0712A" d="M152.119,126.799c0,0-2.315,0.902-3.731,2.958   c-1.415,2.058-1.929,3.063-2.186,7.203c-0.258,4.117-0.258,4.63-1.031,6.432l1.802,0.386c0,0,0.9-2.701,0.9-5.146   c0-2.444,0.643-4.245,0.772-5.404c0.128-1.156,0.257-1.415,1.415-2.315s3.473-2.831,4.115-3.343   c0.643-0.516,1.031-0.644,3.344-1.158c2.318-0.515,3.37-0.421,4.89,0.642c1.287,0.9,1.414,1.415,1.414,1.415   s-3.133,1.103-5.401,3.089c-1.03,0.899-1.673,2.057-1.673,2.057s-0.256,2.446-0.514,5.532c-0.257,3.086-0.644,4.631-1.287,5.66   l2.188,0.386c0,0,1.028-3.344,1.415-6.175c0.385-2.829,0.643-4.759,0.643-4.759c0-0.899-0.129-1.03,0.899-1.672   c1.031-0.645,3.729-2.059,4.759-2.83c1.029-0.771,1.029-1.158,3.602-1.158c2.573,0,3.86,1.544,4.117,2.315   c0.257,0.771-0.257,0.771-1.03,1.287c-0.77,0.514-3.343,2.315-4.373,3.345c-1.029,1.03-1.157,1.286-1.157,2.444   c0,1.157,0.128,5.273-1.416,8.49l2.058,0.514c0,0,1.157-2.444,1.673-5.66c0.516-3.216,0.128-4.246,1.159-4.888   c1.028-0.643,2.057-1.158,3.343-2.187c1.287-1.03,2.444-1.544,3.988-0.771c1.543,0.771,4.191,2.288,4.888,4.373   c0.257,0.772-0.386,0.772-1.543,0.9c-1.158,0.129-2.06,0.257-2.831,0.257c-0.771,0-0.9,0.258-1.028,1.287   c-0.129,1.029-0.902,3.474-1.03,4.374s0.514,1.544,1.287,1.672c0.771,0.129,0.771,0.257,0.514,1.287   c-0.257,1.028,0.514,1.287,1.544,1.542c1.029,0.258,2.701,1.031,3.731,2.316c0,0-3.345,3.345-8.105,3.988   c-4.758,0.642-5.401-0.643-5.917-0.9c-0.516-0.258-1.03-0.386-1.93,0.257c-0.899,0.643-3.472,1.415-5.66,0.771   c-2.186-0.643-3.087-1.542-3.731-2.058c-0.643-0.515-1.028-0.386-2.058,0.387c-1.028,0.772-4.115,1.543-6.045,0.643   c-1.93-0.902-1.93-1.673-2.444-2.187c-0.516-0.516-0.645-1.028-2.188-0.771c-1.543,0.256-4.631,0.644-6.046-1.673   c-1.416-2.315-0.9-6.56,0.129-8.104c1.027-1.544,1.027-4.117,1.415-6.947c0.386-2.829,0.772-4.374,1.415-5.401   c0.644-1.031,0.9-1.031,2.187-1.287c1.287-0.258,2.958-0.901,4.373-1.674C149.16,125.771,150.959,125.641,152.119,126.799   L152.119,126.799z"/>
	<path fill-rule="evenodd" clip-rule="evenodd" fill="#F0712A" d="M320.756,176.708c0,0-0.512-0.385-1.668-2.057   c-1.159-1.673-1.804-2.573-1.418-6.432c0.387-3.859,1.543-8.361,1.799-9.777c0.261-1.416-0.125-1.673-0.643-1.929   c-0.514-0.258-1.025,0-1.287,1.285c-0.255,1.287-2.184,9.262-2.572,11.707c-0.381,2.441,0.261,2.829,0.905,3.859   c0.642,1.028,1.026,1.801,1.284,2.7c0.256,0.902-0.643,1.287-2.06,1.287s-2.573,0.131-5.144-3.215   c-2.574-3.343-3.86-5.146-3.086-8.747c0.771-3.602,2.311-9.004,2.827-12.864c0,0,1.937-4.464,6.559-4.244   c2.704,0.127,3.86,0.899,4.763,1.542c0.898,0.643,1.415,0.515,2.574-0.256c1.156-0.772,4.371-1.545,6.559-0.388   c2.185,1.159,2.57,2.573,3.988,2.832c1.412,0.257,5.144-0.644,6.689,0.771c1.542,1.415,1.416,3.217,2.957,3.473   c1.545,0.258,5.146,0.643,6.178,3.474c1.025,2.829,1.025,5.146,1.025,5.146l-1.287,0.514l-0.9-0.514l-1.673,1.416l-1.542,5.53   l0.645,1.028l2.701,1.544c0,0-2.185,2.7-4.633,2.7c-2.443,0-5.658-2.441-5.658-5.401c0-2.958,1.031-7.075,1.542-8.618   c0.512-1.545-1.155-2.572-1.929-0.771c-0.772,1.8-2.059,7.33-2.314,9.004c-0.259,1.672-0.129,2.186,0.642,2.957   c0.772,0.772,1.804,1.674,2.06,2.186c0.256,0.517,0.127,0.901-0.645,0.901c-0.773,0-3.732,0-4.758,0   c-1.031,0-1.415-0.385-2.06-1.028c-0.642-0.643-1.542-2.315-2.315-3.474c-0.77-1.158-0.77-2.188-0.389-3.859   c0.389-1.673,1.676-7.719,1.932-9.005c0.261-1.286,0.131-1.8-0.514-2.057c-0.643-0.258-1.418,0-1.674,1.671   c-0.256,1.672-2.054,9.263-2.314,10.805c-0.256,1.542-0.129,2.316,0.771,3.474c0.901,1.157,1.156,2.059,1.674,2.571   c0.514,0.517,0,0.901-1.028,0.901c-1.031,0-4.247,0-5.147,0S321.145,177.352,320.756,176.708L320.756,176.708z"/>
	<path fill-rule="evenodd" clip-rule="evenodd" fill="#F0712A" d="M304.937,170.021c0.571,1.262,1.286,3.729,2.313,4.887   c1.03,1.157,1.804,2.444-1.026,2.444c-2.834,0-5.533-1.801-6.049-5.016c-0.512-3.217,1.416-3.473,2.445-3.731   C303.652,168.348,304.295,168.604,304.937,170.021L304.937,170.021z"/>
	<polygon fill-rule="evenodd" clip-rule="evenodd" fill="#F0712A" points="370.281,175.807 357.678,174.008 357.161,177.352    370.281,177.352 370.281,175.807  "/>
	<path fill-rule="evenodd" clip-rule="evenodd" fill="#18AFBA" d="M357.161,290.036c0,0-21.097,44.249-81.812,44.249   c-30.871,0-46.821-8.231-65.346-16.469c-18.524-8.231-29.329-9.26-34.475-8.748c-5.145,0.517-8.233,4.635-8.233,2.062   s5.66-10.288,22.641-10.288c16.979,0,36.017,10.288,48.366,14.923c12.348,4.625,28.298,7.198,43.22,7.198   C334.006,322.963,357.161,290.036,357.161,290.036L357.161,290.036z"/>
	<path fill-rule="evenodd" clip-rule="evenodd" fill="#18AFBA" d="M347.898,281.288c0,0-8.229,23.667-43.734,23.667   c-27.271,0-48.881-10.289-64.317-15.952c-15.436-5.658-29.843-12.862-48.881-12.862s-34.473,7.204-38.59,11.834   c-4.116,4.635-7.205,4.118-4.631-2.573c2.572-6.687,20.582-24.184,48.367-24.184c27.786,0,43.736,9.776,62.259,16.979   c18.522,7.204,40.136,16.469,59.169,16.469C336.579,294.666,347.898,281.288,347.898,281.288L347.898,281.288z"/>
	<path fill-rule="evenodd" clip-rule="evenodd" fill="#18AFBA" d="M240.877,22.476c0,0,0.77-4.116,7.46-7.719   c6.69-3.6,11.061-3.6,14.149-1.287c3.087,2.318,3.602,3.603,3.602,3.603s-5.917-0.515-13.635,1.287   C244.736,20.161,240.877,22.476,240.877,22.476L240.877,22.476z"/>
	<path fill-rule="evenodd" clip-rule="evenodd" fill="#18AFBA" d="M196.625,84.478c-1.029-3.859-2.316-10.548,7.718-24.439   c10.035-13.894,25.984-28.299,38.59-34.218c12.607-5.918,23.412-7.46,34.217-3.086c10.806,4.373,13.121,10.033,15.436,16.463   c2.315,6.432,1.545,10.291,0.515,9.777c-1.028-0.514-2.315-4.631-6.945-9.519c-4.632-4.888-10.291-6.175-13.378-5.146   c-3.088,1.028-11.064,1.028-14.663,0.257c-3.604-0.771-12.608,1.285-21.096,5.146c-8.49,3.858-19.295,12.863-27.529,21.61   c-8.233,8.748-11.578,14.916-11.578,20.582C197.911,87.051,196.625,84.478,196.625,84.478L196.625,84.478z"/>
	<path fill-rule="evenodd" clip-rule="evenodd" fill="#18AFBA" d="M254.127,98.242c0,0,8.23,4.245,9.39,10.419   c0,0,8.746-2.829,12.862-9.004c4.115-6.174,5.789-11.962,5.789-11.962s3.602-3.088,5.144-4.117   c1.545-1.028,1.417-1.287,5.019-1.415s11.189-0.128,11.189-0.128l2.062,1.285c0,0,3.857-0.514,5.014-0.771   c1.156-0.258,1.286,0,0.645,0.771c-0.645,0.771-0.9,1.544-1.286,2.444c-0.387,0.9,0,0.772,1.156-0.257   c1.158-1.029,2.57-1.671,4.633-2.059c0,0,2.957,0.516,4.885,1.93c1.932,1.416,2.963,3.217,5.661,5.146   c2.702,1.93,3.988,1.93,4.116,5.018c0.131,3.087,0.261,11.704,0.387,13.763c0.13,2.058-0.387,2.572-1.543,3.859   c-1.156,1.286-2.06,3.086-0.9,3.215c1.156,0.129,3.215-0.899,4.63-2.444c1.415-1.544,2.189-2.058,2.189-2.058   s4.372,3.474,5.915,5.789c1.542,2.316,1.542,2.572,1.542,5.404c0,2.829-1.026,5.53-0.771,7.717c0.259,2.186,1.605,2.98,2.96,6.817   c1.542,4.374,0.645,6.818,0.645,6.818s-4.632-3.088-15.054-3.088c-10.419,0-14.279,3.345-14.279,3.345s1.287-7.333,5.661-10.032   c4.377-2.704,9.901-4.247,11.577-3.732c1.674,0.516,2.701-1.285,1.93-2.187c-0.771-0.9-3.472-0.771-8.488,0.258   c-5.019,1.028-7.592,1.801-9.779,3.602s-5.916,0.772-4.371-2.187c1.542-2.958,7.203-9.391,7.973-11.062   c0.773-1.673,0.903-2.188-1.027-2.316c-1.93-0.129-3.603,0-6.432,2.444c-2.829,2.444-5.277,5.146-6.431,6.947   c0,0-5.402-4.375-5.277-10.806c0.13-6.432,1.286-9.905,1.929-10.677c0.645-0.772,0.131-1.156-0.898-0.514   c-1.03,0.643-1.928,1.028-2.698,1.93c-0.772,0.899-1.286,1.799-1.804,3.988c-0.514,2.186-1.286,5.789-1.286,5.789   s-8.746-1.159-12.992,0.77c-4.243,1.93-11.319,5.918-17.364,7.719c-6.047,1.802-9.904,2.316-12.864,2.058   c0,0-0.128,2.188,0.131,5.532c0.256,3.345,1.028,6.046,1.028,6.046s1.156-6.688,3.215-9.133c0,0,1.801,0,5.017-0.128   s6.175-0.902,6.175-0.902s0.129,3.346,1.029,10.291c0.9,6.946,2.701,9.906,2.701,9.906s-0.387-6.56,0.642-12.349   c1.03-5.789,2.187-9.647,2.187-9.647s2.96-1.03,4.762-2.06c1.801-1.028,3.215-2.957,8.876-3.215   c5.658-0.257,7.715,0.386,7.715,0.386s2.317,2.702,2.834,5.917c0.515,3.215-0.517,5.66-3.604,8.361   c-3.087,2.701-4.889,5.274-4.243,7.074c0.642,1.802,2.187,3.217,0.256,6.82c-1.929,3.6-2.957,4.758-8.746,3.986   c-5.789-0.771-45.15-6.432-47.337-6.818c-2.188-0.385-2.444-5.53-0.902-9.647c1.545-4.116,3.989-11.318,8.619-17.493   c4.633-6.174,8.105-11.063,9.133-15.438C253.996,99.785,254.127,98.242,254.127,98.242L254.127,98.242z"/>
	<path fill-rule="evenodd" clip-rule="evenodd" fill="#18AFBA" d="M183.505,136.189c0,0-0.9-2.96-2.959-4.116   c-2.057-1.159-3.859-1.029-3.859-1.029s-0.514-1.673-2.829-3.343c-2.316-1.674-5.404-1.802-5.404-1.802s1.157-3.731,3.86-4.759   c0,0-0.386-1.03,0-2.059c0.386-1.027,4.63-8.49,5.403-9.905c0.772-1.414,2.572-1.03,2.572-1.03s-0.257-1.67,1.93-2.957   c2.186-1.287,4.373-2.316,9.391-4.117c5.016-1.799,11.062-3.987,14.664-6.56c3.602-2.573,6.304-4.759,7.591-5.789   c0,0,1.413,0,2.186,0.386c0.771,0.385,1.156,1.287,1.156,1.287s-5.53,5.273-9.132,7.589c-3.602,2.314-10.419,4.759-14.535,6.302   c-4.117,1.545-7.59,2.703-8.362,4.117s1.799,2.574,1.799,6.045c0,0-1.799-1.8-3.858-2.7c-2.056-0.9-2.186-0.257-2.957,1.03   c-0.773,1.287-3.345,6.044-3.859,7.075c-0.516,1.027,0.128,2.185,0.128,2.185s-1.544,1.031-2.188,2.187   c0,0,3.603,2.188,4.761,4.117c1.158,1.93,1.158,2.314,1.158,2.314s0.514-1.542,1.929-2.314c1.416-0.771,2.832-0.9,2.832-0.9   s-0.772,1.672-1.031,4.373C183.635,134.516,183.505,136.189,183.505,136.189L183.505,136.189z"/>
	<path fill-rule="evenodd" clip-rule="evenodd" fill="#18AFBA" d="M147.616,177.352h-6.947c0,0-2.186-2.418-2.186-5.273   c0-2.704,0.899-3.602,1.544-4.502c0.642-0.9,0.642-1.285,0.386-2.572c-0.257-1.287-0.386-3.859,0.771-6.433   c1.158-2.572,3.087-3.603,3.087-3.603l2.315,2.573c0,0-1.542,2.701-1.287,5.917c0.259,3.217,3.73,6.432,10.935,5.789   c7.203-0.644,13.636-3.859,20.968-10.291l2.7-0.385c0,0-5.146,6.817-10.676,10.935c-5.53,4.115-10.934,5.916-15.178,5.916   c-4.245,0-6.304-0.642-8.49-2.188C145.559,173.234,145.943,175.68,147.616,177.352L147.616,177.352z"/>
	<path fill-rule="evenodd" clip-rule="evenodd" fill="#18AFBA" d="M175.659,177.352c0,0,7.718-6.044,10.549-10.162   c2.828-4.116,3.214-7.719,3.214-7.719s2.315-2.186,2.958-3.987c0.644-1.802,0.902-3.988,0.902-3.988s1.542,2.958,1.027,5.789   c-0.513,2.829-2.829,4.375-2.829,4.375s-0.129,4.114-2.573,7.847c-2.443,3.728-4.115,5.273-4.115,5.273s11.368-0.201,21.226-9.775   c4.502-4.376,7.716-10.163,10.674-10.42c0,0-1.285,4.373-5.273,10.033c-3.987,5.66-11.706,12.735-11.706,12.735H175.659   L175.659,177.352z"/>
	<path fill-rule="evenodd" clip-rule="evenodd" fill="#18AFBA" d="M329.248,144.679c0,0,7.331-1.029,12.605,0.771   c5.272,1.801,5.661,2.187,5.661,2.187s1.929,3.217,2.185,6.688l-4.63-1.67c0,0-3.343-3.989-5.274-4.503   c-1.93-0.514-5.789-0.129-5.789-0.129s-1.412-1.287-2.443-2.058C330.535,145.193,329.248,144.679,329.248,144.679L329.248,144.679z   "/>
	<path fill-rule="evenodd" clip-rule="evenodd" fill="#18AFBA" d="M232.258,159.6c0.772-2.701,0.514-2.701,3.474-2.187   c2.957,0.516,27.655,4.247,29.197,4.502c1.545,0.257,0.259,1.415-0.515,2.445c-0.771,1.028-5.402,4.116-12.605,5.916   c-7.202,1.802-11.448,1.802-11.448,1.802s3.217,2.186,10.935,1.801c7.717-0.386,13.764-3.218,19.167-5.403   c5.402-2.186,11.447-3.86,14.663-3.472c3.217,0.385,8.234,0.511,9.262,1.671c1.029,1.158,1.029,3.215-1.673,3.601   c-2.701,0.385-5.786-0.514-10.419,0.643c-4.63,1.159-14.02,3.732-17.881,4.761c-3.857,1.028-4.115,1.671-9.004,1.671   c-4.887,0-25.983,0-28.812,0c-2.831,0-2.187-1.671-1.158-4.373c1.028-2.703,3.343-4.89,4.759-8.233   C231.614,161.401,232.258,159.6,232.258,159.6L232.258,159.6z"/>
	<path fill-rule="evenodd" clip-rule="evenodd" fill="#18AFBA" d="M224.796,101.585c0,0,1.287-2.186,4.631-5.273   c3.345-3.087,6.175-4.63,6.175-4.63s-2.96-2.059-5.532-6.047c-2.574-3.988-1.542-10.933-0.129-7.333   c1.415,3.603,4.761,9.133,9.649,10.548c4.888,1.416,7.331,4.247,6.689,6.948c-0.645,2.7-1.543,9.003-10.163,20.71   c-8.62,11.707-12.993,16.465-14.664,21.224c-1.673,4.76-1.416,6.432-2.959,6.303c-1.543-0.128-5.017-0.514-6.431-0.899   c-1.416-0.388-1.673-0.516-0.771-2.058c0.899-1.544,1.028-4.117,1.028-6.303c0-2.188,0-2.574,1.671-2.96   c1.673-0.385,6.304-2.572,11.321-7.975c5.016-5.404,10.548-13.765,13.634-19.295c3.089-5.532,4.117-9.776,1.802-10.034   c-2.316-0.257-6.175,3.474-10.42,7.462c-4.245,3.985-6.303,6.172-6.303,6.172s-2.83-1.929-4.374-7.847   c-1.542-5.917-0.385-11.961,0.386-13.505c0.772-1.543,2.703-2.83,2.444-0.129s-0.514,7.074,0.258,10.548   C223.509,100.687,224.796,101.585,224.796,101.585L224.796,101.585z"/>
	<path fill-rule="evenodd" clip-rule="evenodd" fill="#18AFBA" d="M200.229,141.59c-1.537-0.381-2.187,0-2.059-1.415   c0.129-1.415,0.385-3.344-0.128-5.016c-0.516-1.672-0.624-2.21,0.771-2.444c1.543-0.257,6.611-0.406,8.232,0   c0,0,1.158,1.932,1.287,4.759c0.129,2.831,0,3.86-0.385,4.759c-0.388,0.902-0.621,0.39-2.446,0.13   C203.7,142.106,201.065,141.799,200.229,141.59L200.229,141.59z"/>
	<path fill-rule="evenodd" clip-rule="evenodd" fill="#B9BDC1" d="M138.226,101.585c1.673-2.444,5.146-7.331,8.875-10.419   c3.732-3.087,6.175-4.758,11.706-4.758c5.533,0,7.847,0.128,9.133,0.128s2.958,0.385,0.258,0.771   c-2.701,0.386-9.777,0.899-12.093,1.029c-2.315,0.128-5.016,1.415-7.459,3.859c-2.444,2.443-4.245,4.244-6.304,6.174   C140.284,100.299,138.226,101.585,138.226,101.585L138.226,101.585z"/>
	<path fill-rule="evenodd" clip-rule="evenodd" fill="#B9BDC1" d="M341.979,82.934c2.318,0,7.593-0.643,13.507,2.188   c5.919,2.829,10.811,8.617,12.223,10.547c1.417,1.93,1.673,2.573,1.673,2.573s-3.602-2.187-4.889-3.988   c-1.287-1.801-4.502-5.66-10.029-7.846c-5.533-2.188-6.564-2.061-8.749-2.317C343.527,83.835,341.979,82.934,341.979,82.934   L341.979,82.934z"/>
	<path fill-rule="evenodd" clip-rule="evenodd" fill="#B9BDC1" d="M325.258,297.239c0,0-10.291,3.603-21.094,3.603   c-10.805,0-28.3-5.147-47.851-12.355c-19.554-7.198-46.31-19.032-59.688-19.032c-15.437,0-21.61,2.057-21.61,2.057   s3.086-5.146,21.61-5.146s32.417,5.146,57.115,15.436c24.697,10.293,40.646,15.951,54.539,15.951S325.258,297.239,325.258,297.239   L325.258,297.239z"/>
	<path fill-rule="evenodd" clip-rule="evenodd" fill="#B9BDC1" d="M239.204,54.762c0,0-0.258,2.316-0.258,4.888   c0,2.573,0.387,4.502,0.387,4.502s1.929-2.572,3.345-3.215c0,0-1.16,3.215-1.287,4.116c0,0,1.93-1.8,2.958-2.188   c0,0-1.158,3.86-1.158,5.275c0,0,2.957-3.601,6.431-5.401c3.473-1.802,6.561-2.188,6.561-2.188s-0.256,2.059,1.545,2.188   c1.801,0.126,3.984,0.644,4.758,2.572l2.059-1.673c0,0,4.116-0.129,6.045,1.158s3.859,3.859,3.859,3.859s0.387-2.828-0.258-3.985   c0,0,1.414,0.384,1.801,1.285c0,0,0.645-1.543,1.414-2.959c0.773-1.415,1.031-3.086,1.031-3.086s3.086,1.8,2.443,6.562   c-0.643,4.758,0.514,10.291,6.047,11.576c0,0-4.502,6.174-10.163,6.817c-5.661,0.643-7.333-1.028-7.333-1.028   s-5.145,4.116-15.563,4.116s-13.377-4.503-13.377-4.503s1.156-0.642,1.286-1.542c0,0-1.929,0.644-3.73-0.9   c-1.801-1.542-2.187-2.444-2.187-2.444s1.8-0.772,1.929-0.772c0.129,0-2.701-0.385-3.343-1.285c-0.645-0.9-1.673-2.315-1.673-8.104   S235.989,56.179,239.204,54.762L239.204,54.762z"/>
	<polygon fill-rule="evenodd" clip-rule="evenodd" fill="#B9BDC1" points="349.83,167.19 350.858,166.033 370.281,169.375    370.281,170.535 349.83,167.19  "/>
	<polygon fill-rule="evenodd" clip-rule="evenodd" fill="#B9BDC1" points="306.607,160.244 306.352,161.401 179.646,142.748    180.032,141.59 306.607,160.244  "/>
	<path fill-rule="evenodd" clip-rule="evenodd" fill="#B9BDC1" d="M137.712,135.289c0,0,0,0.773-0.129,1.415   c0,0-18.909-2.444-25.598-3.731c-6.688-1.287-8.619-3.602-10.805-5.66c-2.187-2.058-5.016-5.66-2.831-3.988   c2.187,1.674,5.273,5.018,8.105,6.433c2.83,1.415,5.017,1.929,9.26,2.701c4.247,0.771,11.063,1.801,15.051,2.188   C134.753,135.03,137.712,135.289,137.712,135.289L137.712,135.289z"/>
	<path fill-rule="evenodd" clip-rule="evenodd" fill="#34326C" d="M242.29,72.515c0,0,3.474-3.986,6.177-4.245   c2.701-0.257,4.5,1.158,8.488,1.545c3.988,0.383,5.917-2.188,5.917-2.188s1.542,2.958,4.758,2.444   c3.218-0.514,6.175-0.644,6.948,3.729c0,0-2.443-2.7-8.104-1.672s-5.917,3.215-10.805,5.275c-4.889,2.059-8.876,1.801-8.876,1.801   s-0.77-4.631-2.057-5.918S242.29,72.515,242.29,72.515L242.29,72.515z"/>
	<path fill-rule="evenodd" clip-rule="evenodd" fill="#FFFFFF" d="M259.656,72c0,0-2.057,2.444-5.016,3.73   c-2.957,1.287-6.303,2.058-6.303,2.058s-0.772-1.929,0-2.701c0.771-0.77,1.801-1.158,2.958-1.542   c1.158-0.388,3.215-1.287,1.801-1.03c-1.412,0.257-2.572,0.516-4.116,0.9c-1.544,0.385-1.799,0.257-2.058-0.385   c-0.257-0.644,0.514-2.573,3.217-2.573c2.702,0,3.231,1.259,5.659,1.542C257.984,72.258,259.656,72,259.656,72L259.656,72z"/>
	<path fill-rule="evenodd" clip-rule="evenodd" fill="#34326C" d="M257.6,80.748c0,0,4.631-1.415,7.329-2.445   c2.701-1.028,3.732-2.185,3.474-1.028c-0.256,1.158-1.287,1.416-1.287,1.416l1.415,1.028c0,0-1.801,0.772-5.144,1.029   C260.043,81.005,257.6,80.748,257.6,80.748L257.6,80.748z"/>
	<path fill-rule="evenodd" clip-rule="evenodd" fill="#34326C" d="M256.313,107.375c1.675,0,2.573,1.287,2.185,3.474   c-0.384,2.186-2.185,3.988-4.502,3.217c-2.313-0.772-1.671-4.119-0.773-5.404C253.884,107.717,256.078,107.375,256.313,107.375   L256.313,107.375z"/>
	<path fill-rule="evenodd" clip-rule="evenodd" fill="#34326C" d="M243.577,132.073c1.678,0,2.572,1.287,2.187,3.473   c-0.386,2.186-2.187,3.988-4.502,3.215c-2.316-0.771-1.671-4.114-0.771-5.401C241.15,132.416,242.66,132.073,243.577,132.073   L243.577,132.073z"/>
	<path fill-rule="evenodd" clip-rule="evenodd" fill="#34326C" d="M233.544,168.734c1.677,0,2.572,1.287,2.187,3.473   c-0.386,2.187-2.187,3.989-4.505,3.215c-2.313-0.77-1.67-4.115-0.77-5.401C231.117,169.077,232.625,168.734,233.544,168.734   L233.544,168.734z"/>
	<path fill-rule="evenodd" clip-rule="evenodd" fill="#FFFFFF" d="M179.57,94.482h-10.655l5.655,3.672   C176.159,96.871,177.898,95.617,179.57,94.482L179.57,94.482z"/>
	<path fill-rule="evenodd" clip-rule="evenodd" fill="#FFFFFF" d="M165.753,94.788c-0.381,0-0.733-0.086-1.035-0.232l-8.493,5.516   c0.035,0.113,0.06,0.229,0.06,0.351c0,0.121-0.025,0.237-0.06,0.35l8.023,5.211c0.234-0.077,0.491-0.119,0.762-0.119   s0.528,0.042,0.762,0.119l3.429-2.228c0.099-0.153,0.2-0.311,0.295-0.457c0.857-1.318,2.254-2.746,3.897-4.163l-6.879-4.467   C166.281,94.746,166.023,94.788,165.753,94.788L165.753,94.788z"/>
	<path fill-rule="evenodd" clip-rule="evenodd" fill="#FFFFFF" d="M154.957,115.366c-0.271,0-0.527-0.043-0.762-0.12l-3.072,1.996   c1.079,0.299,1.97,0.655,2.611,0.96c1.06-0.411,2.802-0.838,5.146-0.893l-3.171-2.059   C155.478,115.324,155.223,115.366,154.957,115.366L154.957,115.366z"/>
	<path fill-rule="evenodd" clip-rule="evenodd" fill="#FFFFFF" d="M153.012,113.878c0-0.118,0.023-0.231,0.058-0.342l-8.028-5.213   c-0.232,0.077-0.491,0.12-0.761,0.12c-0.147,0-0.291-0.016-0.429-0.039c-0.311,0.441-0.624,0.892-0.951,1.357   c0,0-1.851,2.462-4.586,6.102l3.092,2.008c1.306-0.636,2.795-1.113,4.411-1.203c1.186-0.067,2.274,0.008,3.269,0.151l3.988-2.589   C153.037,114.117,153.012,114.001,153.012,113.878L153.012,113.878z"/>
	<path fill-rule="evenodd" clip-rule="evenodd" fill="#FFFFFF" d="M154.341,98.935c0.271,0,0.528,0.043,0.764,0.12l6.634-4.309   c-4.014,0.47-6.859,1.595-9.358,3.53l1.199,0.779C153.813,98.978,154.071,98.935,154.341,98.935L154.341,98.935z"/>
	<path fill-rule="evenodd" clip-rule="evenodd" fill="#FFFFFF" d="M165.01,108.837c-0.271,0-0.528-0.042-0.762-0.119l-7.407,4.81   c0.035,0.114,0.06,0.229,0.06,0.35c0,0.125-0.026,0.244-0.064,0.36l4.266,2.769c1.088-1.832,2.991-5.02,4.903-8.138l-0.233-0.151   C165.539,108.795,165.282,108.837,165.01,108.837L165.01,108.837z"/>
	<path fill-rule="evenodd" clip-rule="evenodd" fill="#FFFFFF" d="M152.398,100.423c0-0.123,0.024-0.239,0.06-0.351l-1.247-0.809   c-1.551,1.412-3.017,3.172-4.616,5.318l5.862-3.807C152.422,100.66,152.398,100.544,152.398,100.423L152.398,100.423z"/>
	<path fill-rule="evenodd" clip-rule="evenodd" fill="#FFFFFF" d="M133.618,122.111c0.982-0.338,2.164-0.559,2.969-0.68   c0.664-0.689,1.837-1.784,3.375-2.753l-2.528-1.642C136.266,118.588,134.978,120.303,133.618,122.111L133.618,122.111z"/>
	<path fill-rule="evenodd" clip-rule="evenodd" fill="#FFFFFF" d="M133.216,153.92c0.271,0,0.529,0.043,0.762,0.119l0.541-0.35   c-0.56-0.523-1.113-1.139-1.577-1.882c-1.109-1.772-1.469-5.331-1.584-7.793l-3.964,2.575c0,0.928,0,2.388,0,4.164l5.061,3.286   C132.689,153.963,132.946,153.92,133.216,153.92L133.216,153.92z"/>
	<path fill-rule="evenodd" clip-rule="evenodd" fill="#FFFFFF" d="M118.564,142.14c-0.542,0.719-1.028,1.367-1.454,1.934   l2.162,1.406c2.718,0,5.66,0,7.142,0l2.883-1.873C126.333,143.204,122.205,142.64,118.564,142.14L118.564,142.14z"/>
	<path fill-rule="evenodd" clip-rule="evenodd" fill="#FFFFFF" d="M131.273,155.406c0-0.122,0.023-0.238,0.06-0.351l-3.939-2.559   c0,1.78,0,3.771,0,5.82l3.939-2.559C131.296,155.644,131.273,155.527,131.273,155.406L131.273,155.406z"/>
	<path fill-rule="evenodd" clip-rule="evenodd" fill="#FFFFFF" d="M130.979,168.22l-3.586-2.33c0,2.323,0,4.447,0,6.111l3.204-2.083   C130.714,169.385,130.842,168.813,130.979,168.22L130.979,168.22z"/>
	<path fill-rule="evenodd" clip-rule="evenodd" fill="#FFFFFF" d="M116.053,145.479c0.169,0,0.352,0,0.532,0l-0.357-0.232   C116.172,145.321,116.105,145.41,116.053,145.479L116.053,145.479z"/>
	<path fill-rule="evenodd" clip-rule="evenodd" fill="#FFFFFF" d="M133.499,159.09c0.268-0.752,0.546-1.443,0.818-2.096   l-0.339-0.222c-0.233,0.077-0.491,0.12-0.762,0.12c-0.27,0-0.527-0.043-0.762-0.12l-5.061,3.289c0,1.372,0,2.747,0,4.083   l3.943,2.562C131.981,164.044,132.761,161.156,133.499,159.09L133.499,159.09z"/>
	<path fill-rule="evenodd" clip-rule="evenodd" fill="#FFFFFF" d="M127.394,175.064c0.235,0,1.113,0,2.554,0   c-0.025-0.25-0.047-0.505-0.047-0.781c0-0.53,0.047-1.102,0.158-1.714c0.034-0.189,0.076-0.403,0.12-0.633l-2.785,1.81   C127.394,174.301,127.394,174.757,127.394,175.064L127.394,175.064z"/>
	<path fill-rule="evenodd" clip-rule="evenodd" fill="#FFFFFF" d="M366.41,154.542c0.232-0.077,0.491-0.119,0.76-0.119   c0.271,0,0.53,0.042,0.762,0.119l0.087-0.055c0.185-3.359,1.644-6.613,4.577-8.127l-4.463-2.897   c-0.232,0.077-0.49,0.119-0.762,0.119s-0.527-0.042-0.762-0.119l-6.961,4.52c0.344,0.877,0.545,1.689,0.663,2.598L366.41,154.542   L366.41,154.542z"/>
	<path fill-rule="evenodd" clip-rule="evenodd" fill="#FFFFFF" d="M345.537,99.708c0.271,0,0.526,0.042,0.762,0.12l4.246-2.757   c-2.456-1.379-5.358-2.274-9.043-2.497c0.091,0.98,0.15,2.054,0.178,3.243l3.095,2.011C345.01,99.75,345.268,99.708,345.537,99.708   L345.537,99.708z"/>
	<path fill-rule="evenodd" clip-rule="evenodd" fill="#FFFFFF" d="M381.891,145.479l4.648-3.019   c-0.037-0.112-0.063-0.229-0.063-0.351c0-0.121,0.025-0.237,0.063-0.351l-7.893-5.123c-0.232,0.077-0.491,0.119-0.763,0.119   c-0.269,0-0.526-0.043-0.762-0.119l-7.866,5.109c0.036,0.113,0.06,0.229,0.06,0.351c0,0.121-0.023,0.237-0.06,0.35l5.055,3.283   c0.66-0.159,1.373-0.249,2.146-0.249C376.457,145.479,378.865,145.479,381.891,145.479L381.891,145.479z"/>
	<path fill-rule="evenodd" clip-rule="evenodd" fill="#FFFFFF" d="M356.618,140.563c0,1.828,0.24,2.239,1.144,3.774l0.893,1.562   c0.141,0.257,0.266,0.499,0.386,0.735l6.446-4.189c-0.033-0.112-0.06-0.229-0.06-0.35c0-0.122,0.026-0.238,0.06-0.351l-7.725-5.018   c-0.235,0.076-0.491,0.119-0.762,0.119c-0.059,0-0.113-0.009-0.168-0.013c-0.013,0.609-0.055,1.202-0.102,1.756L356.618,140.563   L356.618,140.563z"/>
	<path fill-rule="evenodd" clip-rule="evenodd" fill="#FFFFFF" d="M356.018,120.194c0.238-0.077,0.496-0.123,0.773-0.123   c0.269,0,0.527,0.043,0.762,0.119l7.406-4.81c-0.036-0.112-0.063-0.229-0.063-0.35c0-0.123,0.026-0.238,0.063-0.351l-8.022-5.211   c-0.235,0.077-0.491,0.119-0.762,0.119c-0.271,0-0.527-0.042-0.763-0.119l-4.594,2.983c1.154,1.728,2.076,3.701,2.485,5.98   L356.018,120.194L356.018,120.194z"/>
	<path fill-rule="evenodd" clip-rule="evenodd" fill="#FFFFFF" d="M387.658,143.478l-3.082,2.002c1.904,0,3.852,0,5.479,0   c-0.374-0.483-0.877-1.133-1.471-1.895c-0.055,0.002-0.106,0.013-0.164,0.013C388.148,143.598,387.893,143.555,387.658,143.478   L387.658,143.478z"/>
	<path fill-rule="evenodd" clip-rule="evenodd" fill="#FFFFFF" d="M367.17,157.396c-0.269,0-0.527-0.043-0.76-0.12l-4.271,2.774   c1.602,0.315,3.85,0.753,5.854,1.146c0-1.498,0-2.846,0-3.881l-0.061-0.039C367.7,157.353,367.441,157.396,367.17,157.396   L367.17,157.396z"/>
	<path fill-rule="evenodd" clip-rule="evenodd" fill="#FFFFFF" d="M345.406,106.469c1.443,1.353,3.108,2.922,4.555,4.794   l4.329-2.811c-0.036-0.113-0.06-0.229-0.06-0.351c0-0.121,0.023-0.237,0.06-0.351l-7.991-5.188   c-0.235,0.077-0.49,0.119-0.762,0.119c-0.27,0-0.527-0.042-0.763-0.119l-1.963,1.276c0.279,0.344,0.616,0.716,1.047,1.148   L345.406,106.469L345.406,106.469z"/>
	<path fill-rule="evenodd" clip-rule="evenodd" fill="#FFFFFF" d="M365.226,155.91c0-0.121,0.026-0.237,0.063-0.351l-4.842-3.144   c0.031,0.867,0.031,1.861,0.031,3.069c0,1.698,0.033,2.944,0.078,3.849l4.732-3.073   C365.252,156.147,365.226,156.031,365.226,155.91L365.226,155.91z"/>
	<path fill-rule="evenodd" clip-rule="evenodd" fill="#FFFFFF" d="M354.744,130.8c0.932,1.035,1.459,2.09,1.757,3.129   c0.159-0.034,0.323-0.056,0.499-0.056c0.271,0,0.526,0.042,0.762,0.119l7.866-5.109c-0.036-0.114-0.06-0.23-0.06-0.351   c0-0.122,0.023-0.237,0.06-0.351l-8.086-5.251c-0.231,0.073-0.485,0.115-0.751,0.115c-0.271,0-0.527-0.042-0.763-0.119   l-2.528,1.643c-0.008,0.591-0.016,1.129-0.016,1.594C353.484,128.889,353.682,129.62,354.744,130.8L354.744,130.8z"/>
	<path fill-rule="evenodd" clip-rule="evenodd" fill="#FFFFFF" d="M353.516,122.812l1.391-0.903   c-0.037-0.114-0.061-0.23-0.061-0.351c0-0.118,0.021-0.231,0.058-0.342l-1.401-0.91c0.011,0.235,0.031,0.464,0.031,0.703   L353.516,122.812L353.516,122.812z"/>
	<path fill-rule="evenodd" clip-rule="evenodd" fill="#FFFFFF" d="M343.595,101.195c0-0.123,0.023-0.239,0.06-0.353l-1.967-1.276   l-0.008,0.528c-0.006,0.241-0.012,0.466-0.012,0.677c0,0.671,0.061,1.227,0.342,1.84l1.645-1.067   C343.618,101.432,343.595,101.315,343.595,101.195L343.595,101.195z"/>
	<path fill-rule="evenodd" clip-rule="evenodd" fill="#FFFFFF" d="M366.082,116.397l-7.41,4.812c0.037,0.112,0.061,0.228,0.061,0.35   c0,0.125-0.026,0.244-0.063,0.36l8.08,5.246c0.234-0.076,0.49-0.119,0.762-0.119s0.527,0.043,0.763,0.119l5.05-3.279   c-2.064-2.665-4.048-5.225-5.789-7.471c-0.217,0.064-0.445,0.104-0.693,0.104C366.572,116.517,366.314,116.474,366.082,116.397   L366.082,116.397z"/>
	<path fill-rule="evenodd" clip-rule="evenodd" fill="#FFFFFF" d="M358.119,108.101c0,0.122-0.026,0.238-0.061,0.351l6.661,4.326   c-2.013-2.597-3.292-4.249-3.292-4.249l-0.055-0.072c-0.475-0.664-0.939-1.312-1.4-1.95l-1.914,1.242   C358.093,107.864,358.119,107.98,358.119,108.101L358.119,108.101z"/>
	<path fill-rule="evenodd" clip-rule="evenodd" fill="#FFFFFF" d="M369.454,128.532c0,0.121-0.021,0.237-0.058,0.351l7.726,5.018   c0.235-0.076,0.493-0.119,0.762-0.119c0.271,0,0.53,0.043,0.763,0.119l1.623-1.052c-1.963-2.532-4.027-5.198-6.045-7.804   l-4.828,3.136C369.434,128.294,369.454,128.41,369.454,128.532L369.454,128.532z"/>
	<path fill-rule="evenodd" clip-rule="evenodd" fill="#FFFFFF" d="M379.828,135.268c0,0.121-0.023,0.239-0.06,0.351l5.327,3.459   c-1.203-1.552-2.529-3.263-3.928-5.07l-1.399,0.91C379.805,135.03,379.828,135.146,379.828,135.268L379.828,135.268z"/>
	<path fill-rule="evenodd" clip-rule="evenodd" fill="#FFFFFF" d="M347.48,101.195c0,0.12-0.023,0.236-0.06,0.35l7.991,5.188   c0.235-0.076,0.491-0.119,0.763-0.119c0.271,0,0.526,0.043,0.762,0.119l2.163-1.405c-2.199-2.951-4.407-5.516-7.18-7.407   l-4.499,2.921C347.457,100.957,347.48,101.073,347.48,101.195L347.48,101.195z"/>
	<path fill-rule="evenodd" clip-rule="evenodd" fill="#FFFFFF" d="M376,135.619l-7.867,5.109c-0.232-0.076-0.49-0.12-0.762-0.12   s-0.527,0.044-0.762,0.12l-7.726-5.018c0.034-0.114,0.058-0.23,0.058-0.351c0-0.122-0.023-0.238-0.058-0.351l7.866-5.109   c0.234,0.077,0.49,0.119,0.762,0.119s0.527-0.042,0.763-0.119l7.726,5.019c-0.034,0.112-0.058,0.228-0.058,0.35   C375.942,135.389,375.966,135.507,376,135.619L376,135.619z"/>
	<path fill-rule="evenodd" clip-rule="evenodd" fill="#FFFFFF" d="M163.126,107c-0.035,0.113-0.06,0.229-0.06,0.351   c0,0.121,0.025,0.237,0.06,0.351l-7.407,4.811c-0.233-0.076-0.491-0.12-0.762-0.12c-0.274,0-0.535,0.045-0.773,0.124l-8.02-5.209   c0.037-0.112,0.06-0.23,0.06-0.351c0-0.12-0.023-0.238-0.06-0.35l7.416-4.816c0.232,0.077,0.491,0.12,0.761,0.12   c0.271,0,0.528-0.043,0.764-0.12L163.126,107L163.126,107z"/>
</g>
</svg>